<mxfile host="65bd71144e">
    <diagram id="2j475nTpU7DzQZQ7CHG9" name="Page-1">
        <mxGraphModel dx="634" dy="1508" grid="1" gridSize="10" guides="1" tooltips="1" connect="1" arrows="1" fold="1" page="1" pageScale="1" pageWidth="850" pageHeight="1100" background="#FFFFFF" math="0" shadow="1">
            <root>
                <mxCell id="0"/>
                <mxCell id="1" parent="0"/>
                <mxCell id="KC65NHqHegjByWBF8yLd-3" style="edgeStyle=orthogonalEdgeStyle;orthogonalLoop=1;jettySize=auto;html=1;exitX=1;exitY=0.5;exitDx=0;exitDy=0;entryX=0;entryY=0.5;entryDx=0;entryDy=0;rounded=1;startArrow=classic;startFill=1;" parent="1" source="KC65NHqHegjByWBF8yLd-1" target="KC65NHqHegjByWBF8yLd-2" edge="1">
                    <mxGeometry relative="1" as="geometry"/>
                </mxCell>
                <mxCell id="KC65NHqHegjByWBF8yLd-18" value="JSON" style="edgeLabel;html=1;align=center;verticalAlign=middle;resizable=0;points=[];" parent="KC65NHqHegjByWBF8yLd-3" vertex="1" connectable="0">
                    <mxGeometry x="-0.0646" y="1" relative="1" as="geometry">
                        <mxPoint as="offset"/>
                    </mxGeometry>
                </mxCell>
                <mxCell id="KC65NHqHegjByWBF8yLd-1" value="frontend-service" style="ellipse;whiteSpace=wrap;html=1;aspect=fixed;" parent="1" vertex="1">
                    <mxGeometry x="100" y="130" width="120" height="120" as="geometry"/>
                </mxCell>
                <mxCell id="KC65NHqHegjByWBF8yLd-12" style="edgeStyle=orthogonalEdgeStyle;curved=1;orthogonalLoop=1;jettySize=auto;html=1;exitX=0.5;exitY=1;exitDx=0;exitDy=0;entryX=0;entryY=0.5;entryDx=0;entryDy=0;startArrow=classic;startFill=1;" parent="1" source="KC65NHqHegjByWBF8yLd-2" target="KC65NHqHegjByWBF8yLd-11" edge="1">
                    <mxGeometry relative="1" as="geometry"/>
                </mxCell>
                <mxCell id="KC65NHqHegjByWBF8yLd-13" value="gRPC" style="edgeLabel;html=1;align=center;verticalAlign=middle;resizable=0;points=[];" parent="KC65NHqHegjByWBF8yLd-12" vertex="1" connectable="0">
                    <mxGeometry x="-0.2063" y="21" relative="1" as="geometry">
                        <mxPoint x="9" as="offset"/>
                    </mxGeometry>
                </mxCell>
                <mxCell id="KC65NHqHegjByWBF8yLd-53" style="edgeStyle=none;curved=1;sketch=0;orthogonalLoop=1;jettySize=auto;html=1;exitX=1;exitY=0.5;exitDx=0;exitDy=0;entryX=0;entryY=0.5;entryDx=0;entryDy=0;shadow=0;startArrow=classic;startFill=1;strokeWidth=1;" parent="1" source="KC65NHqHegjByWBF8yLd-2" target="KC65NHqHegjByWBF8yLd-9" edge="1">
                    <mxGeometry relative="1" as="geometry">
                        <Array as="points">
                            <mxPoint x="480" y="230"/>
                        </Array>
                    </mxGeometry>
                </mxCell>
                <mxCell id="KC65NHqHegjByWBF8yLd-54" value="gRPC" style="edgeLabel;html=1;align=center;verticalAlign=middle;resizable=0;points=[];" parent="KC65NHqHegjByWBF8yLd-53" vertex="1" connectable="0">
                    <mxGeometry x="0.1182" y="-9" relative="1" as="geometry">
                        <mxPoint y="-19" as="offset"/>
                    </mxGeometry>
                </mxCell>
                <mxCell id="KC65NHqHegjByWBF8yLd-55" style="edgeStyle=none;curved=1;sketch=0;orthogonalLoop=1;jettySize=auto;html=1;exitX=1;exitY=0;exitDx=0;exitDy=0;entryX=0;entryY=0.5;entryDx=0;entryDy=0;shadow=0;startArrow=classic;startFill=1;strokeWidth=1;" parent="1" source="KC65NHqHegjByWBF8yLd-2" target="KC65NHqHegjByWBF8yLd-4" edge="1">
                    <mxGeometry relative="1" as="geometry">
                        <Array as="points">
                            <mxPoint x="460" y="90"/>
                        </Array>
                    </mxGeometry>
                </mxCell>
                <mxCell id="KC65NHqHegjByWBF8yLd-56" value="gRPC" style="edgeLabel;html=1;align=center;verticalAlign=middle;resizable=0;points=[];" parent="KC65NHqHegjByWBF8yLd-55" vertex="1" connectable="0">
                    <mxGeometry x="-0.0844" y="-8" relative="1" as="geometry">
                        <mxPoint y="-1" as="offset"/>
                    </mxGeometry>
                </mxCell>
                <mxCell id="KC65NHqHegjByWBF8yLd-58" style="edgeStyle=none;curved=1;sketch=0;orthogonalLoop=1;jettySize=auto;html=1;exitX=0;exitY=1;exitDx=0;exitDy=0;entryX=0;entryY=0;entryDx=0;entryDy=0;shadow=0;startArrow=classic;startFill=1;strokeWidth=1;" parent="1" source="KC65NHqHegjByWBF8yLd-2" target="KC65NHqHegjByWBF8yLd-57" edge="1">
                    <mxGeometry relative="1" as="geometry">
                        <Array as="points">
                            <mxPoint x="320" y="410"/>
                        </Array>
                    </mxGeometry>
                </mxCell>
                <mxCell id="KC65NHqHegjByWBF8yLd-62" value="gRPC" style="edgeLabel;html=1;align=center;verticalAlign=middle;resizable=0;points=[];" parent="KC65NHqHegjByWBF8yLd-58" vertex="1" connectable="0">
                    <mxGeometry x="-0.0678" y="23" relative="1" as="geometry">
                        <mxPoint as="offset"/>
                    </mxGeometry>
                </mxCell>
                <mxCell id="KC65NHqHegjByWBF8yLd-2" value="gateway-service" style="ellipse;whiteSpace=wrap;html=1;aspect=fixed;" parent="1" vertex="1">
                    <mxGeometry x="330" y="130" width="120" height="120" as="geometry"/>
                </mxCell>
                <mxCell id="KC65NHqHegjByWBF8yLd-46" style="edgeStyle=none;curved=1;sketch=0;orthogonalLoop=1;jettySize=auto;html=1;exitX=1;exitY=0.5;exitDx=0;exitDy=0;entryX=0;entryY=0.5;entryDx=0;entryDy=0;shadow=0;startArrow=classic;startFill=1;strokeWidth=1;" parent="1" source="KC65NHqHegjByWBF8yLd-4" target="KC65NHqHegjByWBF8yLd-45" edge="1">
                    <mxGeometry relative="1" as="geometry"/>
                </mxCell>
                <mxCell id="KC65NHqHegjByWBF8yLd-4" value="user-service" style="ellipse;whiteSpace=wrap;html=1;aspect=fixed;" parent="1" vertex="1">
                    <mxGeometry x="520" y="10" width="120" height="120" as="geometry"/>
                </mxCell>
                <mxCell id="KC65NHqHegjByWBF8yLd-42" style="edgeStyle=none;curved=1;sketch=0;orthogonalLoop=1;jettySize=auto;html=1;exitX=1;exitY=0.5;exitDx=0;exitDy=0;entryX=0;entryY=0.5;entryDx=0;entryDy=0;shadow=0;startArrow=classic;startFill=1;strokeWidth=1;" parent="1" source="KC65NHqHegjByWBF8yLd-9" target="KC65NHqHegjByWBF8yLd-41" edge="1">
                    <mxGeometry relative="1" as="geometry"/>
                </mxCell>
                <mxCell id="KC65NHqHegjByWBF8yLd-9" value="documents-service" style="ellipse;whiteSpace=wrap;html=1;aspect=fixed;" parent="1" vertex="1">
                    <mxGeometry x="520" y="160" width="120" height="120" as="geometry"/>
                </mxCell>
                <mxCell id="KC65NHqHegjByWBF8yLd-11" value="calendar-service" style="ellipse;whiteSpace=wrap;html=1;aspect=fixed;" parent="1" vertex="1">
                    <mxGeometry x="520" y="310" width="120" height="120" as="geometry"/>
                </mxCell>
                <mxCell id="KC65NHqHegjByWBF8yLd-48" style="edgeStyle=none;curved=1;sketch=0;orthogonalLoop=1;jettySize=auto;html=1;exitX=1;exitY=0.5;exitDx=0;exitDy=0;entryX=0;entryY=0.5;entryDx=0;entryDy=0;shadow=0;startArrow=classic;startFill=1;strokeWidth=1;" parent="1" edge="1">
                    <mxGeometry relative="1" as="geometry">
                        <mxPoint x="690" as="targetPoint"/>
                    </mxGeometry>
                </mxCell>
                <mxCell id="KC65NHqHegjByWBF8yLd-41" value="postgres" style="shape=datastore;whiteSpace=wrap;html=1;" parent="1" vertex="1">
                    <mxGeometry x="680" y="175" width="90" height="90" as="geometry"/>
                </mxCell>
                <mxCell id="KC65NHqHegjByWBF8yLd-45" value="postgres" style="shape=datastore;whiteSpace=wrap;html=1;" parent="1" vertex="1">
                    <mxGeometry x="680" y="25" width="90" height="90" as="geometry"/>
                </mxCell>
                <mxCell id="KC65NHqHegjByWBF8yLd-57" value="mail-service" style="ellipse;whiteSpace=wrap;html=1;aspect=fixed;" parent="1" vertex="1">
                    <mxGeometry x="430" y="430" width="120" height="120" as="geometry"/>
                </mxCell>
                <mxCell id="KC65NHqHegjByWBF8yLd-63" value="Services" style="swimlane;fontStyle=0;childLayout=stackLayout;horizontal=1;startSize=30;horizontalStack=0;resizeParent=1;resizeParentMax=0;resizeLast=0;collapsible=1;marginBottom=0;" parent="1" vertex="1">
                    <mxGeometry x="30" y="-190" width="300" height="210" as="geometry">
                        <mxRectangle x="20" y="280" width="90" height="30" as="alternateBounds"/>
                    </mxGeometry>
                </mxCell>
                <mxCell id="KC65NHqHegjByWBF8yLd-64" value="frontend-service: website, protected routes, JWT etc.." style="text;strokeColor=default;fillColor=none;align=left;verticalAlign=middle;spacingLeft=4;spacingRight=4;overflow=hidden;points=[[0,0.5],[1,0.5]];portConstraint=eastwest;rotatable=0;spacingTop=0;spacing=2;spacingBottom=0;" parent="KC65NHqHegjByWBF8yLd-63" vertex="1">
                    <mxGeometry y="30" width="300" height="30" as="geometry"/>
                </mxCell>
                <mxCell id="KC65NHqHegjByWBF8yLd-65" value="gateway-service: send actions to services, log every&#10;returned error, call email service on registration event" style="text;strokeColor=default;fillColor=none;align=left;verticalAlign=middle;spacingLeft=4;spacingRight=4;overflow=hidden;points=[[0,0.5],[1,0.5]];portConstraint=eastwest;rotatable=0;spacingTop=0;spacing=2;spacingBottom=0;" parent="KC65NHqHegjByWBF8yLd-63" vertex="1">
                    <mxGeometry y="60" width="300" height="30" as="geometry"/>
                </mxCell>
                <mxCell id="KC65NHqHegjByWBF8yLd-67" value="user-service: register, login and edit users" style="text;strokeColor=default;fillColor=none;align=left;verticalAlign=middle;spacingLeft=4;spacingRight=4;overflow=hidden;points=[[0,0.5],[1,0.5]];portConstraint=eastwest;rotatable=0;spacingTop=0;spacing=2;spacingBottom=0;" parent="KC65NHqHegjByWBF8yLd-63" vertex="1">
                    <mxGeometry y="90" width="300" height="30" as="geometry"/>
                </mxCell>
                <mxCell id="KC65NHqHegjByWBF8yLd-68" value="documents-service: create documents: type, expiration&#10;date, number of notifications" style="text;strokeColor=default;fillColor=none;align=left;verticalAlign=middle;spacingLeft=4;spacingRight=4;overflow=hidden;points=[[0,0.5],[1,0.5]];portConstraint=eastwest;rotatable=0;" parent="KC65NHqHegjByWBF8yLd-63" vertex="1">
                    <mxGeometry y="120" width="300" height="30" as="geometry"/>
                </mxCell>
                <mxCell id="KC65NHqHegjByWBF8yLd-69" value="calendar-service: create CalDav protocol and .ics files " style="text;strokeColor=default;fillColor=none;align=left;verticalAlign=middle;spacingLeft=4;spacingRight=4;overflow=hidden;points=[[0,0.5],[1,0.5]];portConstraint=eastwest;rotatable=0;spacingTop=0;spacing=2;spacingBottom=0;" parent="KC65NHqHegjByWBF8yLd-63" vertex="1">
                    <mxGeometry y="150" width="300" height="30" as="geometry"/>
                </mxCell>
                <mxCell id="KC65NHqHegjByWBF8yLd-71" value="mail-service: send emails by any 3rd-party service for&#10;email verification" style="text;strokeColor=none;fillColor=none;align=left;verticalAlign=middle;spacingLeft=4;spacingRight=4;overflow=hidden;points=[[0,0.5],[1,0.5]];portConstraint=eastwest;rotatable=0;spacingTop=0;spacing=2;spacingBottom=0;" parent="KC65NHqHegjByWBF8yLd-63" vertex="1">
                    <mxGeometry y="180" width="300" height="30" as="geometry"/>
                </mxCell>
            </root>
        </mxGraphModel>
    </diagram>
</mxfile>